<svg fill="none" height="46" viewBox="0 0 188 46" width="188" xmlns="http://www.w3.org/2000/svg"><path d="m187.7 37.4v7.7h-20.8v-44.699998h20.8v7.599998h-13.2v10.8h10.5v7.7h-10.5v10.9zm-32.8-36.999998h7.6v44.699998h-7.6v-22l-3 11.4h-7.4l-3-11.4v22h-7.6v-44.699998h7.6l6.8 21.599998zm-31.9 7.599998h-5.5v29.3h5.5zm3-7.599998c2.5 0 4.7 2.099998 4.7 4.699998v35.3c0 2.6-2.2 4.7-4.7 4.7h-11.4c-2.6 0-4.7-2.2-4.7-4.7v-35.3c0-2.6 2.1-4.699998 4.7-4.699998zm-28 28.199998 7.7-1.8v13.6c0 2.6-2.2 4.7-4.7 4.7h-11.4c-2.6 0-4.7-2.2-4.7-4.7v-35.3c0-2.6 2.1-4.699998 4.7-4.699998h11.4c2.5 0 4.7 2.099998 4.7 4.699998v9.1l-7.7 1.8v-8h-5.5v29.3h5.5zm-16.8 8.8v7.7h-18.2v-44.699998h7.6v36.999998zm-21.4 0v7.7h-20.8v-44.699998h20.8v7.599998h-13.2v10.8h10.5v7.7h-10.5v10.9zm-32.2-36.999998h7.7l-1.3 44.699998h-14.5l-2-18.5-2 18.5h-14.5l-1-44.699998h7.60001l.59999 36.999998h.8l4.8-36.999998h7.6l4.9 36.999998h.8z" fill="#81b3d3"/></svg>