<svg fill="none" height="72" viewBox="0 0 76 72" width="76" xmlns="http://www.w3.org/2000/svg"><g fill="#83b3d3"><path d="m30.1185 65h16.0642v-23.8h-16.0642zm2.9116-20.9h10.1406v18h-10.1406z"/><path d="m73.3916 39.3 2.1084-2.1-9.9398-9.9v-27.3h-13.9558v13.6l-13.6546-13.6-37.4498 37.2 2.10843 2.1 7.83137-7.8v37.6h-4.01611v2.9h64.15661v-2.9h-5.1205v-37.6zm-10.8434 29.8h-49.1968v-40.6l24.5984-24.4 24.5984 24.4zm0-44.7-7.9317-7.9v-13.6h7.9317z"/><path d="m30.3193 27.1c0 4.3 3.514 7.7 7.7309 7.7 4.3173 0 7.8313-3.5 7.8313-7.7 0-4.3-3.514-7.7-7.8313-7.7-4.2169 0-7.7309 3.4-7.7309 7.7zm7.8313-5c2.7108 0 5.0201 2.2 5.0201 4.9s-2.2089 4.9-5.0201 4.9c-2.7108 0-5.0201-2.2-5.0201-4.9s2.2089-4.9 5.0201-4.9z"/><path d="m20.4799 41.2h-3.012v3.9h3.012z"/><path d="m26.4036 41.2h-3.012v3.9h3.012z"/><path d="m20.4799 47.2h-3.012v3.9h3.012z"/><path d="m26.4036 47.2h-3.012v3.9h3.012z"/><path d="m52.508 41.2h-3.012v3.9h3.012z"/><path d="m58.4317 41.2h-3.012v3.9h3.012z"/><path d="m52.508 47.2h-3.012v3.9h3.012z"/><path d="m58.4317 47.2h-3.012v3.9h3.012z"/></g></svg>