<svg fill="none" height="20" viewBox="0 0 21 20" width="21" xmlns="http://www.w3.org/2000/svg"><g fill="#000"><path d="m17.6928 4.3h-14.69998c-.3 0-.6.2-.6.5s.3.6.6.6h1.7v12c0 .3.3.6.6.6h10.19998c.3 0 .6-.3.6-.6v-12h1.7c.3 0 .6-.3.6-.6s-.4-.5-.7-.5zm-2.8 12.5h-9.09998v-11.4h9.09998z"/><path d="m8.59282 3.2h3.39998c.3 0 .6-.3.6-.6s-.2-.6-.5-.6h-3.49998c-.3 0-.5.3-.5.6s.2.6.5.6z"/><path d="m8.59282 14c.3 0 .6-.3.6-.6v-5.7c0-.3-.3-.6-.6-.6s-.6.3-.6.6v5.7c.1.3.3.6.6.6z"/><path d="m12.0928 14c.3 0 .6-.3.6-.6v-5.7c0-.3-.3-.6-.6-.6s-.6.4-.6.6v5.7c0 .3.2.6.6.6z"/></g></svg>